HIERARCHY
ROOT Hips
{
 OFFSET 0.000000 0.000000 0.000000
 CHANNELS 6 Xposition Yposition Zposition Yrotation Xrotation Zrotation
 JOINT Chest
 {
  OFFSET 0.000000 9.585900 0.002600
  CHANNELS 3 Yrotation Xrotation Zrotation
  JOINT Chest2
  {
   OFFSET 0.000000 9.601200 -0.005300
   CHANNELS 3 Yrotation Xrotation Zrotation
   JOINT Chest3
   {
    OFFSET 0.000000 9.561800 0.000000
    CHANNELS 3 Yrotation Xrotation Zrotation
    JOINT Chest4
    {
     OFFSET 0.000000 9.552100 0.000000
     CHANNELS 3 Yrotation Xrotation Zrotation
     JOINT Neck
     {
      OFFSET 0.000000 14.453000 0.000000
      CHANNELS 3 Yrotation Xrotation Zrotation
      JOINT Head
      {
       OFFSET 0.000000 8.936500 -0.011300
       CHANNELS 3 Yrotation Xrotation Zrotation
       End Site
       {
        OFFSET 0.000000 17.073600 -0.006000
       }
      }
     }
     JOINT RightCollar
     {
      OFFSET -2.921100 9.558500 0.000000
      CHANNELS 3 Yrotation Xrotation Zrotation
      JOINT RightShoulder
      {
       OFFSET -13.519700 0.000000 0.000000
       CHANNELS 3 Yrotation Xrotation Zrotation
       JOINT RightElbow
       {
        OFFSET 0.000000 -29.696600 0.000000
        CHANNELS 3 Yrotation Xrotation Zrotation
        JOINT RightWrist
        {
         OFFSET 0.000000 -24.004700 0.000000
         CHANNELS 3 Yrotation Xrotation Zrotation
         End Site
         {
          OFFSET 0.000000 -17.728500 0.000000
         }
        }
       }
      }
     }
     JOINT LeftCollar
     {
      OFFSET 2.921100 9.558500 0.000000
      CHANNELS 3 Yrotation Xrotation Zrotation
      JOINT LeftShoulder
      {
       OFFSET 13.519700 0.000000 0.000000
       CHANNELS 3 Yrotation Xrotation Zrotation
       JOINT LeftElbow
       {
        OFFSET 0.000000 -29.696600 0.000000
        CHANNELS 3 Yrotation Xrotation Zrotation
        JOINT LeftWrist
        {
         OFFSET 0.000000 -24.004700 0.000000
         CHANNELS 3 Yrotation Xrotation Zrotation
         End Site
         {
          OFFSET 0.000000 -17.728500 0.000000
         }
        }
       }
      }
     }
    }
   }
  }
 }
 JOINT RightHip
 {
  OFFSET -7.771700 -0.012900 -0.001300
  CHANNELS 3 Yrotation Xrotation Zrotation
  JOINT RightKnee
  {
   OFFSET 0.000000 -40.869800 0.001200
   CHANNELS 3 Yrotation Xrotation Zrotation
   JOINT RightAnkle
   {
    OFFSET 0.000000 -39.717900 0.002100
    CHANNELS 3 Yrotation Xrotation Zrotation
    JOINT RightToe
    {
     OFFSET 0.000000 -4.965400 11.033500
     CHANNELS 3 Yrotation Xrotation Zrotation
     End Site
     {
      OFFSET 0.000000 -1.423100 5.872300
     }
    }
   }
  }
 }
 JOINT LeftHip
 {
  OFFSET 7.771700 -0.012900 -0.001300
  CHANNELS 3 Yrotation Xrotation Zrotation
  JOINT LeftKnee
  {
   OFFSET 0.000000 -40.869800 0.001200
   CHANNELS 3 Yrotation Xrotation Zrotation
   JOINT LeftAnkle
   {
    OFFSET 0.000000 -39.717900 0.002100
    CHANNELS 3 Yrotation Xrotation Zrotation
    JOINT LeftToe
    {
     OFFSET 0.000000 -4.965400 11.033500
     CHANNELS 3 Yrotation Xrotation Zrotation
     End Site
     {
      OFFSET 0.000000 -1.423100 5.872300
     }
    }
   }
  }
 }
}
MOTION
Frames: 9
Frame Time: 0.008333
0.000000 85.388000 0.000000 0.000000 -5.767877 0.000000 0.000000 11.653817 0.000000 0.000000 -5.885947 0.000000 0.000000 -0.000000 0.000000 0.000000 -0.000000 0.000000 0.000000 12.528835 0.000000 0.000000 0.711642 0.000000 0.000000 -0.000000 0.000000 0.000000 0.000000 -90.000000 0.000000 -2.309062 0.000000 0.000000 2.309062 0.000000 0.000000 -0.000000 0.000000 0.000000 -0.000000 90.000000 0.000000 -2.309062 0.000000 0.000000 2.309062 0.000000 0.000000 8.520406 0.000000 0.000000 1.905762 0.000000 -0.000000 -4.658285 0.000000 0.000000 -0.000000 0.000000 0.000000 8.520406 0.000000 0.000000 1.905762 0.000000 -0.000000 -4.658285 0.000000 0.000000 -0.000000 0.000000
-14.074164 57.361064 60.034789 178.535837 -31.501046 -1.179214 3.636542 19.895250 4.837325 0.359278 2.589984 0.347780 0.612327 4.265333 0.564665 2.838449 17.361191 2.650148 -2.909735 14.121811 -2.014692 -4.703033 -9.594144 -2.641889 4.543388 -3.081624 -1.439603 17.120414 -18.535089 -22.180142 117.042960 -79.690212 -73.822794 13.831798 -9.344371 -47.054441 -7.545610 -2.956046 -3.428360 9.112163 -15.148911 1.510139 -153.105246 -37.345947 150.191412 -15.825513 -22.761720 34.021278 10.854563 -40.180823 -3.284101 -2.918731 66.978363 -4.182104 3.943155 6.507010 8.488499 -0.068561 0.164506 -0.032159 -9.372628 -47.472389 4.512535 27.151615 66.331594 27.045436 -14.768443 31.787123 -0.932942 -0.059861 -15.279526 -6.456109
-14.073811 57.364359 60.029374 178.545164 -31.480320 -1.169164 3.638346 19.892853 4.816036 0.354592 2.587250 0.347842 0.612337 4.263199 0.562518 2.836259 17.352417 2.652152 -2.959379 14.126937 -2.036484 -4.801345 -9.597099 -2.631784 4.540006 -3.067619 -1.433943 17.110952 -18.533553 -22.175890 117.029857 -79.687696 -73.816486 13.832700 -9.337724 -47.058219 -7.541205 -2.918969 -3.443859 9.133352 -15.123886 1.479210 -153.147253 -37.314834 150.211147 -15.851011 -22.790504 34.018397 10.829646 -40.200392 -3.274038 -2.923597 66.990412 -4.226130 3.946231 6.504171 8.494314 -0.067909 0.160153 -0.027735 -9.336490 -47.493599 4.462758 27.147312 66.325044 27.063805 -14.737413 31.795457 -0.901087 -0.085208 -15.287967 -6.470848
-14.072537 57.368255 60.022602 178.555897 -31.457584 -1.156963 3.636047 19.885023 4.792633 0.357060 2.589466 0.344922 0.613586 4.261158 0.560378 2.849891 17.363110 2.617310 -3.020571 14.116350 -2.011574 -4.905978 -9.593725 -2.617369 4.515307 -3.079487 -1.385961 17.095423 -18.509040 -22.167963 117.121827 -79.673288 -73.919968 13.833690 -9.331669 -47.061474 -7.553995 -2.898751 -3.416797 9.125439 -15.136932 1.477137 -153.172020 -37.324990 150.231438 -15.850601 -22.786559 34.032730 10.776245 -40.220757 -3.228160 -2.927275 67.003090 -4.315747 3.934340 6.493350 8.518852 -0.063546 0.157447 -0.024621 -9.289707 -47.517718 4.402641 27.137339 66.318062 27.082647 -14.707139 31.812422 -0.866005 -0.112463 -15.304199 -6.488080
-14.067301 57.373230 60.013657 178.571442 -31.441001 -1.160883 3.625627 19.873625 4.786065 0.379719 2.615485 0.324711 0.618454 4.262307 0.550678 2.843449 17.342417 2.624657 -3.080221 14.119258 -2.013128 -5.017703 -9.587936 -2.597272 4.505582 -3.018803 -1.380965 17.087394 -18.541931 -22.158628 117.055601 -79.664832 -73.881749 13.837812 -9.319492 -47.066598 -7.554658 -2.863519 -3.415606 9.108505 -15.155690 1.470569 -153.185956 -37.330404 150.243459 -15.849899 -22.780073 34.047357 10.718704 -40.234142 -3.174927 -2.935740 67.014053 -4.389304 3.926058 6.481792 8.533690 -0.061434 0.154451 -0.021789 -9.246009 -47.539924 4.347337 27.126285 66.318786 27.116189 -14.665204 31.837426 -0.821583 -0.139687 -15.332601 -6.515593
-14.060433 57.376812 60.006444 178.594805 -31.404617 -1.168179 3.618264 19.854828 4.771334 0.383971 2.617871 0.320384 0.610605 4.250205 0.558551 2.853535 17.351480 2.603468 -3.113171 14.110537 -1.993306 -5.164879 -9.576057 -2.580501 4.493162 -2.994113 -1.361896 17.085755 -18.542625 -22.157173 117.020724 -79.653355 -73.863200 13.841090 -9.312029 -47.076313 -7.544271 -2.798384 -3.440427 9.063544 -15.220023 1.496096 -153.196415 -37.342366 150.256518 -15.851455 -22.771597 34.058814 10.635746 -40.268256 -3.096422 -2.924071 67.024954 -4.480023 3.901382 6.469176 8.560878 -0.053860 0.160037 -0.019384 -9.250039 -47.577313 4.331970 27.117475 66.320589 27.123821 -14.635630 31.848599 -0.796331 -0.158088 -15.346628 -6.530241
-14.050277 57.383400 59.993806 178.596149 -31.401374 -1.172026 3.661688 19.892912 4.756866 0.371781 2.600579 0.330336 0.597637 4.232356 0.571044 2.863922 17.364028 2.581444 -3.147069 14.097919 -1.971891 -5.321055 -9.566650 -2.552691 4.481941 -2.961114 -1.345137 17.085811 -18.554721 -22.159867 116.883011 -79.637656 -73.715763 13.854649 -9.325875 -47.106411 -7.555874 -2.805803 -3.409038 9.057077 -15.207287 1.467403 -153.207321 -37.344207 150.263254 -15.849768 -22.775964 34.057761 10.564218 -40.269911 -3.005947 -2.926158 67.036707 -4.569145 3.884197 6.457643 8.578226 -0.051696 0.155271 -0.015762 -9.197313 -47.584038 4.266628 27.130490 66.325762 27.202799 -14.571669 31.847827 -0.751749 -0.203960 -15.364378 -6.561750
-14.040902 57.388673 59.982666 178.612354 -31.382774 -1.169191 3.667044 19.897109 4.735201 0.372588 2.600812 0.328526 0.597059 4.230199 0.569153 2.869319 17.367886 2.568517 -3.262278 14.111007 -1.986948 -5.411979 -9.584089 -2.492575 4.467512 -2.967186 -1.315581 17.097141 -18.531345 -22.168896 117.017284 -79.622735 -73.878506 13.825575 -9.286782 -47.030038 -7.559045 -2.778363 -3.405065 9.035975 -15.231285 1.452653 -153.224571 -37.339345 150.266310 -15.861604 -22.776090 34.063365 10.488247 -40.287225 -2.932465 -2.936130 67.053684 -4.671879 3.869571 6.445031 8.596574 -0.049205 0.149498 -0.011879 -9.182107 -47.604757 4.222520 27.149436 66.324772 27.250646 -14.527975 31.863540 -0.714526 -0.242196 -15.389450 -6.585369
-14.022537 57.394871 59.970126 178.622112 -31.373144 -1.208388 3.697961 19.910169 4.763734 0.373525 2.601499 0.326537 0.619522 4.256369 0.543657 2.860122 17.343768 2.579135 -3.350411 14.115768 -1.981471 -5.538287 -9.591065 -2.433500 4.450784 -2.977883 -1.284867 17.109908 -18.508313 -22.179425 117.046875 -79.606183 -73.909685 13.820524 -9.289163 -47.024663 -7.556964 -2.713162 -3.433288 8.995204 -15.314251 1.486503 -153.260685 -37.359180 150.288699 -15.871242 -22.775265 34.070948 10.374924 -40.295914 -2.786580 -2.942317 67.055496 -4.771825 3.845572 6.437980 8.612038 -0.041866 0.149278 -0.010857 -9.212716 -47.610452 4.242885 27.179448 66.318822 27.303391 -14.413100 31.923477 -0.607637 -0.329606 -15.453032 -6.639408
